HIERARCHY
ROOT SimulationBone
{
	OFFSET 0.000000 0.000000 0.000000
	CHANNELS 6 Xposition Yposition Zposition Zrotation Yrotation Xrotation 
	JOINT Hips
	{
		OFFSET 0.000000 0.000000 0.000000
		CHANNELS 6 Xposition Yposition Zposition Zrotation Yrotation Xrotation 
		JOINT RightUpLeg
		{
			OFFSET 0.103458 1.857835 10.548497
			CHANNELS 3 Zrotation Yrotation Xrotation
			JOINT RightLeg
			{
				OFFSET 43.500000 -0.000034 -0.000013
				CHANNELS 3 Zrotation Yrotation Xrotation
				JOINT RightFoot
				{
					OFFSET 42.372192 0.000011 0.000010
					CHANNELS 3 Zrotation Yrotation Xrotation
					JOINT RightToe
					{
						OFFSET 17.299994 -0.000002 -0.000009
						CHANNELS 3 Zrotation Yrotation Xrotation
						End Site
						{
							OFFSET 0.000000 0.000000 0.000000
						}
					}
				}
			}
		}
		JOINT LeftUpLeg
		{
			OFFSET 0.103456 1.857832 -10.548508
			CHANNELS 3 Zrotation Yrotation Xrotation
			JOINT LeftLeg
			{
				OFFSET 43.500038 -0.000027 0.000004
				CHANNELS 3 Zrotation Yrotation Xrotation
				JOINT LeftFoot
				{
					OFFSET 42.372261 -0.000011 0.000014
					CHANNELS 3 Zrotation Yrotation Xrotation
					JOINT LeftToe
					{
						OFFSET 17.299995 -0.000004 0.000011
						CHANNELS 3 Zrotation Yrotation Xrotation
						End Site
						{
							OFFSET 0.000000 0.000000 0.000000
						}
					}
				}
			}
		}
		JOINT Spine
		{
			OFFSET 6.901970 -2.603727 -0.000002
			CHANNELS 3 Zrotation Yrotation Xrotation
			JOINT Spine1
			{
				OFFSET 12.588097 -0.000001 0.000008
				CHANNELS 3 Zrotation Yrotation Xrotation
				JOINT Spine2
				{
					OFFSET 12.343203 0.000000 -0.000005
					CHANNELS 3 Zrotation Yrotation Xrotation
					JOINT Neck
					{
						OFFSET 25.832903 -0.000002 -0.000005
						CHANNELS 3 Zrotation Yrotation Xrotation
						JOINT Head
						{
							OFFSET 11.766603 0.000011 -0.000000
							CHANNELS 3 Zrotation Yrotation Xrotation
							End Site
							{
								OFFSET 0.000000 0.000000 0.000000
							}
						}
					}
					JOINT RightShoulder
					{
						OFFSET 19.745899 -1.480377 6.000100
						CHANNELS 3 Zrotation Yrotation Xrotation
						JOINT RightArm
						{
							OFFSET 11.284134 -0.000021 -0.000017
							CHANNELS 3 Zrotation Yrotation Xrotation
							JOINT RightForeArm
							{
								OFFSET 33.000053 0.000002 0.000032
								CHANNELS 3 Zrotation Yrotation Xrotation
								JOINT RightHand
								{
									OFFSET 25.200005 0.000020 0.000008
									CHANNELS 3 Zrotation Yrotation Xrotation
									End Site
									{
										OFFSET 0.000000 0.000000 0.000000
									}
								}
							}
						}
					}
					JOINT LeftShoulder
					{
						OFFSET 19.746092 -1.480377 -6.000073
						CHANNELS 3 Zrotation Yrotation Xrotation
						JOINT LeftArm
						{
							OFFSET 11.284133 -0.000016 -0.000019
							CHANNELS 3 Zrotation Yrotation Xrotation
							JOINT LeftForeArm
							{
								OFFSET 33.000092 0.000022 0.000006
								CHANNELS 3 Zrotation Yrotation Xrotation
								JOINT LeftHand
								{
									OFFSET 25.199783 0.000138 0.000434
									CHANNELS 3 Zrotation Yrotation Xrotation
									End Site
									{
										OFFSET 0.000000 0.000000 0.000000
									}
								}
							}
						}
					}
				}
			}
		}
	}
}
MOTION
Frames: 14
Frame Time: 0.016667
-362.590216 0.000000 -445.269542 180.000000 -9.125095 180.000000 -4.346871 71.602303 3.514546 95.815615 4.451196 176.048045 133.714838 -29.376146 -161.920012 -51.672460 2.762710 6.611417 74.167637 -12.976997 -25.842053 21.454559 0.003108 0.000017 141.944776 27.531893 157.848907 -58.004755 3.294150 -12.652946 81.779024 15.360070 26.583827 21.454556 -0.003093 0.000000 14.822271 -1.974777 1.971601 19.578207 -4.254545 3.582375 19.259815 -4.232983 3.607983 -3.985140 -10.320788 -2.776331 -40.700125 13.056186 -13.363373 162.090864 -72.599462 17.005761 4.134156 46.224573 43.346496 -30.998222 -18.848093 1.520897 8.308725 -2.741545 3.750248 155.222466 85.555777 -23.303311 -37.571778 -40.346631 17.274351 -68.359835 19.075112 -2.710087 -8.386827 19.977218 -14.869105 
-363.308141 0.000000 -447.474940 180.000000 -9.633982 180.000000 -4.531068 72.195190 3.563918 95.724755 4.067532 176.657257 135.999557 -29.659501 -160.606052 -46.977927 2.292747 5.730626 72.042457 -13.084500 -26.495952 21.454558 0.003109 0.000018 142.854498 26.957704 159.000616 -58.909732 2.853293 -12.894210 83.526915 15.125790 26.769054 21.454557 -0.003092 0.000000 14.868610 -1.925560 1.951192 19.672535 -4.154683 3.548231 19.354169 -4.133329 3.573235 -3.628474 -10.721246 -2.997070 -40.966237 12.859520 -13.570348 162.266196 -72.495221 16.830970 5.627260 47.024902 44.368614 -31.030887 -19.111680 1.539539 8.218209 -2.245470 2.444478 153.647899 85.647545 -24.881622 -39.789430 -39.421252 18.545528 -68.954433 18.868562 -2.719746 -8.874355 18.873976 -15.646601 
-363.942160 0.000000 -449.696447 180.000000 -10.095090 180.000000 -4.761061 72.962831 3.617234 95.512334 3.551698 177.301003 138.496323 -29.976005 -159.633641 -41.495483 1.781632 4.625540 68.706387 -13.059985 -26.300886 21.454556 0.003110 0.000018 143.149976 26.561956 161.331586 -60.302364 2.193326 -13.003738 84.485389 14.724195 25.698806 21.454557 -0.003092 -0.000000 14.882116 -1.896241 1.924684 19.701027 -4.092358 3.499959 19.382674 -4.071291 3.524588 -3.220958 -10.896769 -3.134743 -41.055500 12.591115 -13.557339 162.875547 -72.505485 16.206143 6.532517 48.003179 44.335664 -31.082698 -19.167403 1.544091 8.048406 -2.815802 1.406716 152.348551 85.732937 -26.183144 -42.021243 -38.684745 19.307447 -69.268348 18.859493 -2.731483 -9.377209 18.030092 -16.777643 
-364.499587 0.000000 -451.939173 180.000000 -10.519701 180.000000 -5.001086 73.789207 3.599247 95.217101 2.870198 177.926434 140.954135 -30.086105 -159.027158 -35.902936 1.322398 2.982065 64.386703 -12.710448 -25.651623 21.454555 0.003110 0.000018 142.963194 26.486602 164.129295 -61.948032 1.577285 -13.010088 84.885385 14.242173 23.885971 21.454557 -0.003092 0.000000 14.869619 -1.885436 1.892389 19.677372 -4.065093 3.438076 19.359019 -4.044396 3.462543 -2.867711 -11.156250 -3.260824 -40.953817 12.463879 -13.610182 163.778100 -72.496997 15.281555 7.084411 49.060162 43.429736 -31.399830 -19.127699 1.548250 7.882432 -3.981004 1.156252 150.024400 85.914891 -28.508346 -44.168630 -38.055197 19.500994 -69.240304 19.030804 -2.743140 -9.867782 17.496354 -17.891781 
-364.975681 0.000000 -454.222996 180.000000 -10.914375 180.000000 -5.200289 74.569801 3.417781 94.909507 2.031396 178.538704 143.085002 -29.754978 -158.843817 -31.017584 0.977641 0.590862 59.616937 -11.897470 -25.058411 21.454555 0.003109 0.000018 142.558761 26.829831 166.854326 -63.570827 1.209872 -12.947397 84.957917 13.695041 21.644831 21.454554 -0.003093 0.000000 14.844991 -1.879680 1.848845 19.629754 -4.045636 3.353440 19.311392 -4.025454 3.377797 -2.605139 -11.696353 -3.464950 -40.700381 12.597006 -13.949067 164.665826 -72.351459 14.377779 7.615397 50.104636 42.066921 -32.215524 -19.225430 1.573197 7.788788 -5.165358 2.013987 145.748982 86.232730 -32.783016 -46.145763 -37.383700 19.098608 -68.821129 19.312830 -2.746539 -10.348035 17.167267 -18.651869 
-365.362417 0.000000 -456.531954 180.000000 -11.281610 180.000000 -5.329221 75.282303 3.114756 94.652027 1.145339 179.211070 144.578124 -29.146503 -159.724561 -27.751845 0.503237 -2.054860 55.626583 -10.723888 -24.668727 21.454557 0.003108 0.000018 142.199606 27.438600 169.333422 -65.021945 1.102117 -12.908321 84.898861 13.181472 19.376560 21.454553 -0.003093 0.000000 14.806173 -1.860977 1.798322 19.554145 -3.998965 3.257621 19.235775 -3.979367 3.281701 -2.243029 -12.026243 -3.723970 -40.434114 12.631441 -14.224389 165.271384 -72.215347 13.762500 8.292156 51.238015 40.726187 -33.516164 -19.559620 1.621993 7.763944 -6.101875 3.452296 141.879492 86.467348 -36.651747 -47.783326 -36.625809 18.199748 -68.145035 19.555364 -2.734777 -10.806380 16.766210 -19.312220 
-365.654399 0.000000 -458.809074 180.000000 -11.622309 180.000000 -5.375997 75.922690 2.778572 94.505887 0.339542 179.996049 145.215810 -28.485245 -162.325287 -26.824472 -0.316866 -4.240941 53.557571 -9.411869 -24.366852 21.454557 0.003110 0.000018 142.098469 28.091173 171.512823 -66.213628 1.194433 -12.953920 84.857420 12.787939 17.417193 21.454553 -0.003093 -0.000000 14.754254 -1.809421 1.750546 19.452625 -3.887264 3.173187 19.134264 -3.868176 3.196591 -1.645324 -11.725372 -3.988000 -40.251110 12.257284 -14.112571 165.490240 -72.224844 13.537658 9.143901 52.535635 39.825857 -35.174057 -20.154991 1.696730 7.786253 -6.670189 4.788589 141.739128 86.465887 -36.792800 -48.939373 -35.783389 16.935183 -67.403268 19.646912 -2.710020 -11.217222 16.044838 -20.188480 
-365.858750 0.000000 -461.016810 180.000000 -11.939705 180.000000 -5.339900 76.477882 2.403978 94.542047 -0.290871 -179.202022 145.207498 -27.875304 -166.716981 -28.136393 -0.712105 -5.023065 53.561656 -8.384097 -23.590597 21.454557 0.003111 0.000017 142.333942 28.590696 173.466519 -67.177669 1.354378 -12.974080 84.885891 12.430491 15.771930 21.454555 -0.003092 0.000000 14.718959 -1.701939 1.727461 19.384270 -3.669125 3.146430 19.065978 -3.650200 3.168510 -1.093261 -11.347065 -4.238029 -39.987447 11.857099 -13.952780 165.697806 -72.204002 13.325644 9.737819 53.779156 39.401158 -36.840192 -20.873953 1.786032 7.703527 -7.013983 5.576115 142.990136 86.402374 -35.541606 -49.649416 -34.982507 15.414200 -66.825948 19.712189 -2.691538 -11.555504 15.058055 -21.276282 
-365.993796 0.000000 -463.150303 180.000000 -12.251699 180.000000 -5.231657 76.948787 1.954974 94.790138 -0.685550 -178.516286 144.848068 -27.375431 -172.469336 -31.243658 0.130134 -3.932700 55.322874 -7.970347 -21.970019 21.454557 0.003109 0.000017 142.905892 28.779254 175.289092 -67.948769 1.470063 -12.832110 85.009968 11.993511 14.345447 21.454556 -0.003092 0.000000 14.722188 -1.528027 1.748421 19.392687 -3.327415 3.216863 19.074549 -3.308072 3.236873 -0.870141 -11.458131 -4.481111 -39.483527 11.820597 -14.102337 166.215295 -71.993218 12.803281 9.643285 54.759521 39.313340 -38.199987 -21.548357 1.864991 7.398694 -7.330012 5.653514 142.760988 86.449526 -35.768325 -49.984001 -34.344580 13.735862 -66.561723 19.889138 -2.693281 -11.787585 13.932973 -22.473494 
-366.071547 0.000000 -465.202687 180.000000 -12.590294 180.000000 -5.083881 77.401314 1.489543 95.089208 -0.887975 -178.038240 144.322688 -26.933303 -177.667769 -35.014298 1.591887 -2.442423 57.581916 -7.814787 -20.273579 21.454558 0.003106 0.000017 143.657087 28.626801 177.049459 -68.456717 1.567915 -12.471831 85.215017 11.406480 12.962119 21.454555 -0.003092 0.000000 14.725618 -1.330793 1.809813 19.401173 -2.946171 3.371525 19.083222 -2.925904 3.389226 -0.886446 -11.695373 -4.731989 -38.882210 11.862569 -14.340488 166.732116 -71.818733 12.279761 9.013661 55.606610 39.253274 -39.320302 -22.043242 1.926840 7.056621 -7.772390 5.757802 142.059673 86.463578 -36.471195 -50.010337 -33.854733 11.993604 -66.398850 20.130804 -2.703639 -11.830222 12.776887 -23.593116 
-366.093252 0.000000 -467.158113 180.000000 -12.983018 180.000000 -4.922261 77.902300 1.089407 95.282186 -0.970956 -177.812760 143.802246 -26.447436 179.434420 -38.430536 2.662788 -1.971637 59.179925 -7.408757 -19.288975 21.454558 0.003104 0.000017 144.437439 28.163127 178.792534 -68.627315 1.682820 -11.885288 85.489353 10.641672 11.491030 21.454551 -0.003091 -0.000000 14.688818 -1.156948 1.896294 19.328801 -2.614420 3.573187 19.011021 -2.592942 3.588877 -0.966350 -11.617515 -4.989941 -38.366712 11.645244 -14.391938 166.903590 -71.905285 12.100289 8.128716 56.459079 38.965773 -40.339700 -22.293235 1.972344 6.856347 -8.398787 6.682002 142.390007 86.296081 -36.151272 -49.822726 -33.491823 10.267307 -66.080288 20.360411 -2.706927 -11.602269 11.695612 -24.435551 
-366.060501 0.000000 -469.009249 180.000000 -13.444368 180.000000 -4.747943 78.457291 0.787236 95.424485 -1.029411 -177.763745 143.461784 -25.895201 178.429799 -41.288137 2.997421 -2.260463 60.248736 -6.769212 -18.807807 21.454558 0.003106 0.000018 145.281784 27.503298 -179.501087 -68.476866 1.753913 -11.172131 85.855675 9.798847 10.058931 21.454550 -0.003091 -0.000000 14.623343 -1.014250 1.969635 19.199375 -2.341313 3.744054 18.881727 -2.318808 3.758088 -0.941735 -11.405434 -5.201394 -37.978122 11.318674 -14.316450 166.718619 -72.070950 12.283583 7.203634 57.157565 38.573468 -41.302692 -22.481660 2.010559 6.689106 -8.949334 8.545538 143.096701 86.094231 -35.455686 -49.625059 -33.343712 8.593810 -65.529257 20.567238 -2.699039 -11.048455 10.797006 -24.817294 
-365.979253 0.000000 -470.761599 180.000000 -13.971512 180.000000 -4.560892 79.051928 0.584037 95.599630 -1.141385 -177.790865 143.417315 -25.291430 178.432593 -43.607976 2.590017 -2.697218 61.226328 -6.082860 -18.434867 21.454556 0.003115 0.000019 146.238793 26.768696 -177.882068 -68.058741 1.734168 -10.454036 86.304542 8.997387 8.811761 21.454552 -0.003092 0.000000 14.549851 -0.900245 1.996338 19.054655 -2.117038 3.817444 18.737088 -2.094095 3.830122 -0.719515 -11.310251 -5.319181 -37.691122 11.089813 -14.221144 166.257406 -72.107549 12.755394 6.388190 57.541240 38.202141 -42.223705 -22.770658 2.054542 6.439486 -9.188999 11.185133 143.479337 86.030025 -35.075771 -49.599467 -33.496474 7.000730 -64.712155 20.760814 -2.679380 -10.174885 10.148746 -24.625821 
-365.856398 0.000000 -472.424432 180.000000 -14.548499 180.000000 -4.372038 79.653519 0.440126 95.790078 -1.290590 -177.858399 143.569783 -24.647795 178.725983 -45.702209 1.806749 -2.859072 62.508681 -5.514229 -17.986038 21.454555 0.003120 0.000019 147.201367 26.038500 -176.476911 -67.475663 1.731315 -9.830430 86.698636 8.308603 7.722282 21.454557 -0.003094 0.000000 14.474002 -0.810096 1.984108 18.905544 -1.933598 3.809382 18.588015 -1.910708 3.820953 -0.509281 -11.244851 -5.377816 -37.361253 10.894083 -14.085792 165.662713 -72.115893 13.365201 5.522951 57.722815 37.499042 -43.078060 -22.990260 2.095784 6.185177 -9.316934 13.981145 144.017220 86.075475 -34.532481 -49.761113 -33.888956 5.544285 -63.587428 20.965921 -2.648872 -9.198589 9.681108 -24.022716 
